<?xml version="1.0" encoding="UTF-8"?>
<svg width="100px" height="25px" viewBox="0 0 100 25" version="1.1" xmlns="http://www.w3.org/2000/svg" xmlns:xlink="http://www.w3.org/1999/xlink">
    <!-- Generator: Sketch 55.2 (78181) - https://sketchapp.com -->
    <title>Logo / reverse</title>
    <desc>Created with Sketch.</desc>
    <g id="Logo-/-reverse" stroke="none" stroke-width="1" fill="none" fill-rule="evenodd">
        <path d="M38.2453552,9.6010929 L36.0901639,16.1038251 L34.8081967,16.1038251 L33.2010929,11.2918033 L31.5661202,16.1038251 L30.2748634,16.1038251 L28.1196721,9.6010929 L29.3737705,9.6010929 L30.9901639,14.5431694 L32.6715847,9.6010929 L33.7863388,9.6010929 L35.4306011,14.5710383 L37.0934426,9.6010929 L38.2453552,9.6010929 Z M40.9765027,16.1688525 C40.4748609,16.1688525 40.0227707,16.0604747 39.6202186,15.8437158 C39.2176665,15.626957 38.9033709,15.3250475 38.6773224,14.9379781 C38.4512739,14.5509088 38.3382514,14.1127529 38.3382514,13.6234973 C38.3382514,13.1342416 38.4512739,12.697634 38.6773224,12.3136612 C38.9033709,11.9296884 39.2176665,11.6293271 39.6202186,11.4125683 C40.0227707,11.1958095 40.4748609,11.0874317 40.9765027,11.0874317 C41.4843377,11.0874317 41.9395244,11.1958095 42.3420765,11.4125683 C42.7446286,11.6293271 43.0589242,11.9296884 43.2849727,12.3136612 C43.5110212,12.697634 43.6240437,13.1342416 43.6240437,13.6234973 C43.6240437,14.1127529 43.5110212,14.5509088 43.2849727,14.9379781 C43.0589242,15.3250475 42.7446286,15.626957 42.3420765,15.8437158 C41.9395244,16.0604747 41.4843377,16.1688525 40.9765027,16.1688525 Z M40.9765027,15.1748634 C41.4038273,15.1748634 41.7568292,15.032424 42.0355191,14.747541 C42.314209,14.462658 42.4535519,14.0879805 42.4535519,13.6234973 C42.4535519,13.1590141 42.314209,12.7843366 42.0355191,12.4994536 C41.7568292,12.2145705 41.4038273,12.0721311 40.9765027,12.0721311 C40.5491782,12.0721311 40.1977245,12.2145705 39.9221311,12.4994536 C39.6465378,12.7843366 39.5087432,13.1590141 39.5087432,13.6234973 C39.5087432,14.0879805 39.6465378,14.462658 39.9221311,14.747541 C40.1977245,15.032424 40.5491782,15.1748634 40.9765027,15.1748634 Z M45.8442623,11.8677596 C46.1786902,11.3475384 46.7670268,11.0874317 47.6092896,11.0874317 L47.6092896,12.1928962 C47.5101999,12.1743168 47.4204011,12.1650273 47.3398907,12.1650273 C46.8877937,12.1650273 46.5347918,12.2966289 46.2808743,12.5598361 C46.0269568,12.8230432 45.9,13.2023655 45.9,13.6978142 L45.9,16.1038251 L44.7387978,16.1038251 L44.7387978,11.1431694 L45.8442623,11.1431694 L45.8442623,11.8677596 Z M48.5939891,9.21092896 L49.7551913,9.21092896 L49.7551913,16.1038251 L48.5939891,16.1038251 L48.5939891,9.21092896 Z M56.1371585,9.21092896 L56.1371585,16.1038251 L55.0224044,16.1038251 L55.0224044,15.4628415 C54.830418,15.6981797 54.5935351,15.8746807 54.3117486,15.9923497 C54.0299622,16.1100188 53.7187631,16.1688525 53.3781421,16.1688525 C52.9012727,16.1688525 52.4724063,16.0635712 52.0915301,15.8530055 C51.7106538,15.6424397 51.4118408,15.3436267 51.195082,14.9565574 C50.9783231,14.569488 50.8699454,14.1251391 50.8699454,13.6234973 C50.8699454,13.1218554 50.9783231,12.6790547 51.195082,12.295082 C51.4118408,11.9111092 51.7106538,11.6138444 52.0915301,11.4032787 C52.4724063,11.192713 52.9012727,11.0874317 53.3781421,11.0874317 C53.7063769,11.0874317 54.0067382,11.1431688 54.279235,11.2546448 C54.5517318,11.3661208 54.7839699,11.5333322 54.9759563,11.7562842 L54.9759563,9.21092896 L56.1371585,9.21092896 Z M53.5174863,15.1748634 C53.7961763,15.1748634 54.0469934,15.111385 54.2699454,14.9844262 C54.4928973,14.8574675 54.6693983,14.6763218 54.7994536,14.4409836 C54.9295088,14.2056455 54.9945355,13.9331527 54.9945355,13.6234973 C54.9945355,13.3138418 54.9295088,13.0413491 54.7994536,12.8060109 C54.6693983,12.5706728 54.4928973,12.389527 54.2699454,12.2625683 C54.0469934,12.1356096 53.7961763,12.0721311 53.5174863,12.0721311 C53.2387964,12.0721311 52.9879793,12.1356096 52.7650273,12.2625683 C52.5420754,12.389527 52.3655744,12.5706728 52.2355191,12.8060109 C52.1054638,13.0413491 52.0404372,13.3138418 52.0404372,13.6234973 C52.0404372,13.9331527 52.1054638,14.2056455 52.2355191,14.4409836 C52.3655744,14.6763218 52.5420754,14.8574675 52.7650273,14.9844262 C52.9879793,15.111385 53.2387964,15.1748634 53.5174863,15.1748634 Z M62.4540984,16.1688525 C61.9524565,16.1688525 61.5003663,16.0604747 61.0978142,15.8437158 C60.6952621,15.626957 60.3809665,15.3250475 60.154918,14.9379781 C59.9288695,14.5509088 59.815847,14.1127529 59.815847,13.6234973 C59.815847,13.1342416 59.9288695,12.697634 60.154918,12.3136612 C60.3809665,11.9296884 60.6952621,11.6293271 61.0978142,11.4125683 C61.5003663,11.1958095 61.9524565,11.0874317 62.4540984,11.0874317 C62.9619333,11.0874317 63.41712,11.1958095 63.8196721,11.4125683 C64.2222242,11.6293271 64.5365198,11.9296884 64.7625683,12.3136612 C64.9886168,12.697634 65.1016393,13.1342416 65.1016393,13.6234973 C65.1016393,14.1127529 64.9886168,14.5509088 64.7625683,14.9379781 C64.5365198,15.3250475 64.2222242,15.626957 63.8196721,15.8437158 C63.41712,16.0604747 62.9619333,16.1688525 62.4540984,16.1688525 Z M62.4540984,15.1748634 C62.8814229,15.1748634 63.2344248,15.032424 63.5131148,14.747541 C63.7918047,14.462658 63.9311475,14.0879805 63.9311475,13.6234973 C63.9311475,13.1590141 63.7918047,12.7843366 63.5131148,12.4994536 C63.2344248,12.2145705 62.8814229,12.0721311 62.4540984,12.0721311 C62.0267738,12.0721311 61.6753201,12.2145705 61.3997268,12.4994536 C61.1241334,12.7843366 60.9863388,13.1590141 60.9863388,13.6234973 C60.9863388,14.0879805 61.1241334,14.462658 61.3997268,14.747541 C61.6753201,15.032424 62.0267738,15.1748634 62.4540984,15.1748634 Z M68.2322404,10.084153 C67.7429848,10.084153 67.4983607,10.3504527 67.4983607,10.8830601 L67.4983607,11.1803279 L68.8639344,11.1803279 L68.8639344,12.1092896 L67.5355191,12.1092896 L67.5355191,16.1038251 L66.3743169,16.1038251 L66.3743169,12.1092896 L65.5568306,12.1092896 L65.5568306,11.1803279 L66.3743169,11.1803279 L66.3743169,10.8644809 C66.3743169,10.3318735 66.5291423,9.91229661 66.8387978,9.6057377 C67.1484533,9.2991788 67.5850609,9.14590164 68.1486339,9.14590164 C68.5945377,9.14590164 68.9444432,9.23570038 69.1983607,9.41530055 L68.873224,10.2885246 C68.6750445,10.1522762 68.4613855,10.084153 68.2322404,10.084153 Z M72.3196721,9.6010929 L75.1622951,9.6010929 C75.8559233,9.6010929 76.4721285,9.735791 77.010929,10.0051913 C77.5497295,10.2745915 77.9677581,10.655462 78.2650273,11.1478142 C78.5622966,11.6401664 78.710929,12.2083757 78.710929,12.852459 C78.710929,13.4965424 78.5622966,14.0647516 78.2650273,14.5571038 C77.9677581,15.049456 77.5497295,15.4303265 77.010929,15.6997268 C76.4721285,15.969127 75.8559233,16.1038251 75.1622951,16.1038251 L72.3196721,16.1038251 L72.3196721,9.6010929 Z M75.1065574,15.0819672 C75.5834268,15.0819672 76.0030037,14.9906202 76.3653005,14.8079235 C76.7275974,14.6252268 77.0062832,14.3651201 77.2013661,14.0275956 C77.3964491,13.6900712 77.4939891,13.2983629 77.4939891,12.852459 C77.4939891,12.4065551 77.3964491,12.0148469 77.2013661,11.6773224 C77.0062832,11.3397979 76.7275974,11.0796913 76.3653005,10.8969945 C76.0030037,10.7142978 75.5834268,10.6229508 75.1065574,10.6229508 L73.5273224,10.6229508 L73.5273224,15.0819672 L75.1065574,15.0819672 Z M79.8814208,11.1431694 L81.042623,11.1431694 L81.042623,16.1038251 L79.8814208,16.1038251 L79.8814208,11.1431694 Z M80.4666667,10.3256831 C80.256101,10.3256831 80.0796,10.2591081 79.9371585,10.1259563 C79.794717,9.99280443 79.7234973,9.82714125 79.7234973,9.62896175 C79.7234973,9.43078225 79.794717,9.26511906 79.9371585,9.13196721 C80.0796,8.99881536 80.256101,8.93224044 80.4666667,8.93224044 C80.6772324,8.93224044 80.8537333,8.99571886 80.9961749,9.1226776 C81.1386164,9.24963634 81.2098361,9.40910651 81.2098361,9.6010929 C81.2098361,9.8054655 81.1401646,9.97732171 81.0008197,10.1166667 C80.8614747,10.2560116 80.6834255,10.3256831 80.4666667,10.3256831 Z M87.4896175,11.1431694 L87.4896175,15.3513661 C87.4896175,17.0978229 86.5978231,17.9710383 84.8142077,17.9710383 C84.3373382,17.9710383 83.885248,17.9106563 83.4579235,17.7898907 C83.030599,17.6691251 82.677597,17.4941724 82.3989071,17.2650273 L82.9191257,16.3918033 C83.1358845,16.5714034 83.4099255,16.7153911 83.7412568,16.8237705 C84.0725882,16.9321499 84.4085593,16.9863388 84.7491803,16.9863388 C85.2941739,16.9863388 85.6936235,16.8624785 85.947541,16.6147541 C86.2014585,16.3670297 86.3284153,15.9892557 86.3284153,15.4814208 L86.3284153,15.2213115 C86.1302358,15.4380703 85.8887082,15.6021852 85.6038251,15.7136612 C85.3189421,15.8251372 85.0061948,15.8808743 84.6655738,15.8808743 C84.1948975,15.8808743 83.7691276,15.7802378 83.3882514,15.5789617 C83.0073751,15.3776857 82.7070138,15.0943552 82.4871585,14.7289617 C82.2673031,14.3635683 82.157377,13.9455397 82.157377,13.4748634 C82.157377,13.0041871 82.2673031,12.5877067 82.4871585,12.2254098 C82.7070138,11.8631129 83.0073751,11.582879 83.3882514,11.3846995 C83.7691276,11.18652 84.1948975,11.0874317 84.6655738,11.0874317 C85.0247741,11.0874317 85.3514557,11.1462653 85.6456284,11.2639344 C85.9398011,11.3816035 86.1859735,11.561201 86.384153,11.8027322 L86.384153,11.1431694 L87.4896175,11.1431694 Z M84.8420765,14.8961749 C85.2817873,14.8961749 85.6425305,14.7645733 85.9243169,14.5013661 C86.2061034,14.238159 86.3469945,13.8959948 86.3469945,13.4748634 C86.3469945,13.0599251 86.2061034,12.7224057 85.9243169,12.4622951 C85.6425305,12.2021845 85.2817873,12.0721311 84.8420765,12.0721311 C84.3961726,12.0721311 84.0323329,12.2021845 83.7505464,12.4622951 C83.46876,12.7224057 83.3278689,13.0599251 83.3278689,13.4748634 C83.3278689,13.8959948 83.46876,14.238159 83.7505464,14.5013661 C84.0323329,14.7645733 84.3961726,14.8961749 84.8420765,14.8961749 Z M89.0131148,11.1431694 L90.1743169,11.1431694 L90.1743169,16.1038251 L89.0131148,16.1038251 L89.0131148,11.1431694 Z M89.5983607,10.3256831 C89.3877949,10.3256831 89.211294,10.2591081 89.0688525,10.1259563 C88.9264109,9.99280443 88.8551913,9.82714125 88.8551913,9.62896175 C88.8551913,9.43078225 88.9264109,9.26511906 89.0688525,9.13196721 C89.211294,8.99881536 89.3877949,8.93224044 89.5983607,8.93224044 C89.8089264,8.93224044 89.9854273,8.99571886 90.1278689,9.1226776 C90.2703104,9.24963634 90.3415301,9.40910651 90.3415301,9.6010929 C90.3415301,9.8054655 90.2718586,9.97732171 90.1325137,10.1166667 C89.9931687,10.2560116 89.8151195,10.3256831 89.5983607,10.3256831 Z M94.6797814,15.8344262 C94.543533,15.9459022 94.3778698,16.0295079 94.1827869,16.0852459 C93.9877039,16.1409839 93.7817861,16.1688525 93.5650273,16.1688525 C93.0200337,16.1688525 92.5989086,16.0264131 92.3016393,15.7415301 C92.0043701,15.456647 91.8557377,15.0417149 91.8557377,14.4967213 L91.8557377,12.1092896 L91.0382514,12.1092896 L91.0382514,11.1803279 L91.8557377,11.1803279 L91.8557377,10.0469945 L93.0169399,10.0469945 L93.0169399,11.1803279 L94.3453552,11.1803279 L94.3453552,12.1092896 L93.0169399,12.1092896 L93.0169399,14.4688525 C93.0169399,14.7103837 93.0757735,14.894626 93.1934426,15.0215847 C93.3111117,15.1485434 93.4814197,15.2120219 93.7043716,15.2120219 C93.9644822,15.2120219 94.1812377,15.1438987 94.3546448,15.0076503 L94.6797814,15.8344262 Z M97.1693989,16.1688525 C96.7668468,16.1688525 96.3735903,16.1162118 95.9896175,16.010929 C95.6056447,15.9056461 95.2990904,15.7724963 95.0699454,15.6114754 L95.515847,14.7289617 C95.7387989,14.8775964 96.0066469,14.9968119 96.3193989,15.086612 C96.6321509,15.1764121 96.9402535,15.2213115 97.2437158,15.2213115 C97.9373441,15.2213115 98.284153,15.0386175 98.284153,14.673224 C98.284153,14.499817 98.1959025,14.3790532 98.0193989,14.310929 C97.8428953,14.2428048 97.5595648,14.1777781 97.1693989,14.115847 C96.7606537,14.0539159 96.4277791,13.9826962 96.170765,13.9021858 C95.913751,13.8216754 95.6908024,13.6807842 95.5019126,13.4795082 C95.3130227,13.2782321 95.2185792,12.9979982 95.2185792,12.6387978 C95.2185792,12.1681215 95.4152075,11.7918958 95.8084699,11.5101093 C96.2017324,11.2283228 96.7327835,11.0874317 97.4016393,11.0874317 C97.7422604,11.0874317 98.0828763,11.126138 98.4234973,11.2035519 C98.7641183,11.2809658 99.042804,11.3846988 99.2595628,11.5147541 L98.8136612,12.3972678 C98.3925298,12.1495434 97.918764,12.0256831 97.3923497,12.0256831 C97.0517287,12.0256831 96.7931703,12.0767754 96.6166667,12.1789617 C96.4401631,12.2811481 96.3519126,12.4158462 96.3519126,12.5830601 C96.3519126,12.7688534 96.4463561,12.900455 96.6352459,12.9778689 C96.8241357,13.0552827 97.1167558,13.1280507 97.5131148,13.1961749 C97.9094737,13.258106 98.2346071,13.3293256 98.4885246,13.4098361 C98.7424421,13.4903465 98.9607459,13.6265928 99.1434426,13.8185792 C99.3261393,14.0105656 99.4174863,14.2830583 99.4174863,14.6360656 C99.4174863,15.1005488 99.2162133,15.4721298 98.8136612,15.7508197 C98.4111091,16.0295096 97.8630271,16.1688525 97.1693989,16.1688525 Z" id="WorldofDigits" fill="#FFFFFF" fill-rule="nonzero"></path>
        <path d="M24.5794893,12.2370501 L22.9579605,6.18978941 C22.9493181,6.15741807 22.9322448,6.12791423 22.9084796,6.10428299 L18.4758197,1.67443274 C18.4592431,1.65783394 18.4396504,1.64454735 18.4180921,1.63528523 C18.4081359,1.63060905 18.3977876,1.62681705 18.3871665,1.62395305 L12.3412246,0.00654261344 C12.3074173,-0.00218087115 12.2719468,-0.00218087115 12.2381395,0.00654261344 L6.1932284,1.62704365 L6.1932284,1.62704365 C6.18182638,1.63043472 6.17077922,1.63491979 6.16024116,1.64043622 C6.15625587,1.64209546 6.15245536,1.64416715 6.1489018,1.6466174 C6.1416529,1.65047406 6.13475442,1.65495523 6.12828478,1.66000997 L6.11694542,1.66825156 L6.10869861,1.67546294 L1.63274295,6.05174291 C1.60836976,6.07646565 1.5906405,6.10694065 1.5812004,6.14033992 L0.00812155435,12.2246877 C-0.00270718478,12.2609854 -0.00270718478,12.2996514 0.00812155435,12.3359491 L1.6296504,18.38424 C1.6386844,18.4164479 1.65570318,18.4458575 1.67913125,18.4697464 L6.11179116,22.8995966 C6.13502741,22.9233484 6.16422115,22.9404266 6.19632095,22.9490461 L12.2391703,24.5829397 C12.255535,24.5879312 12.2725735,24.5901639 12.289682,24.5901639 C12.3070807,24.589705 12.3243723,24.5872857 12.3412246,24.5829397 L18.3583027,22.8892947 C18.3893563,22.8807137 18.4177284,22.8644101 18.4407708,22.8419056 L22.9126031,18.4738672 L22.9126031,18.4738672 C22.9430507,18.4451431 22.9630086,18.4070658 22.9692999,18.3656964 L24.5867053,12.3400699 C24.5930901,12.3056746 24.5906067,12.270221 24.5794893,12.2370501 Z M24.1671489,12.1917214 L22.4239796,13.1312617 L22.8672456,7.34361087 L24.1671489,12.1917214 Z M7.20655507,20.8649561 L12.3608108,21.6108193 C12.3900392,21.6169912 12.4202356,21.6169912 12.449464,21.6108193 L17.4594005,20.7114566 L12.2917437,24.1533473 L7.20655507,20.8649561 Z M6.31486883,2.13905192 L11.902082,7.25913465 L6.37568905,7.05309511 L4.520157,6.62659324 L6.31486883,2.13905192 Z M12.9030385,21.1410491 L18.1407931,15.0803958 L18.1407931,20.2015088 L12.9030385,21.1410491 Z M12.2133991,20.9350096 L6.80143057,15.0618523 L12.2154608,15.659367 L12.2133991,20.9350096 Z M12.5958448,20.9123452 L12.5958448,15.6480348 L17.8470005,14.8352088 L12.5958448,20.9123452 Z M12.401014,15.2926166 L6.6890678,14.6652262 L12.4061682,7.76290134 L17.9665793,14.4303411 L12.401014,15.2926166 Z M6.56021141,7.44044945 L12.0051671,7.646489 L6.51073055,14.2819926 L6.56021141,7.44044945 Z M6.12622308,14.5488138 L2.12652065,13.2353117 L6.17467308,7.86592112 L6.12622308,14.5488138 Z M5.92005285,14.8815677 L2.01725043,17.930953 L2.00900362,13.6041225 L5.92005285,14.8815677 Z M6.29940607,15.0700939 L11.9031129,21.1534115 L6.43032416,20.3622196 L2.20383448,18.269888 L6.29940607,15.0700939 Z M18.5242697,14.9742855 L22.4239796,18.2812202 L18.5242697,20.0603717 L18.5242697,14.9742855 Z M22.0353487,13.3043349 L18.7149772,14.2531471 L22.5074786,7.1447827 L22.0353487,13.3043349 Z M18.5149921,2.25340387 L22.3889307,6.12591715 L18.3026368,6.99437384 L18.5149921,2.25340387 Z M22.4105785,6.5112111 L18.2943899,14.2253317 L12.8009842,7.63206623 L18.1057442,7.4208757 L18.1377006,7.4208757 L22.4105785,6.5112111 Z M17.9170984,7.05000451 L12.9051002,7.24986287 L18.1315155,2.27709842 L17.9170984,7.05000451 Z M12.2917437,0.388745972 L17.4459995,1.77024113 L12.2917437,2.64487901 L7.13542634,1.77024113 L12.2917437,0.388745972 Z M12.2649416,3.02605217 C12.2860472,3.03016432 12.3077488,3.03016432 12.3288544,3.02605217 L17.7573165,2.1050554 L12.4030757,7.20041338 L6.84678802,2.10814599 L12.2649416,3.02605217 Z M5.72419113,2.58306714 L4.13977293,6.53799624 L2.15023023,6.07852805 L5.72419113,2.58306714 Z M1.90488765,6.41643291 L6.06746456,7.3724564 L1.76778445,13.0838726 L0.410153499,12.2020234 L1.90488765,6.41643291 Z M0.501899251,12.7171222 L1.62655785,13.4444418 L1.63274295,16.9347518 L0.501899251,12.7171222 Z M2.69039622,18.9446675 L6.27672734,20.718668 L11.2041958,23.9060998 L6.33960926,22.5905373 L2.69039622,18.9446675 Z M18.2016133,22.531816 L13.3751683,23.8896167 L18.4211846,20.5291117 L21.8570115,18.9621809 L18.2016133,22.531816 Z M22.6651988,17.9927648 L18.7252857,14.6508034 L22.3013083,13.6288472 C22.314694,13.625058 22.3275191,13.6195155 22.3394498,13.6123641 L24.0918968,12.6666426 L22.6651988,17.9927648 Z" id="World" fill="#FFFFFF" fill-rule="nonzero"></path>
    </g>
</svg>