<?xml version="1.0" encoding="UTF-8"?>
<svg width="200px" height="200px" viewBox="0 0 200 200" version="1.1" xmlns="http://www.w3.org/2000/svg" xmlns:xlink="http://www.w3.org/1999/xlink">
    <!-- Generator: Sketch 55.2 (78181) - https://sketchapp.com -->
    <title>mobile</title>
    <desc>Created with Sketch.</desc>
    <g id="mobile" stroke="none" stroke-width="1" fill="none" fill-rule="evenodd">
        <g id="Group" transform="translate(0.000000, 15.000000)" fill="#ffffff">
            <path d="M174.457143,91.32825 C174.224675,90.8165455 174.081818,90.2465455 174.081818,89.6869091 C174.081818,88.8785455 174.374026,88.0753636 174.903896,87.4276364 C175.749351,86.3990455 175.749351,84.9066818 174.905195,83.8806818 C174.374026,83.2316591 174.081818,82.4284773 174.081818,81.6188182 C174.081818,80.8104545 174.374026,80.0072727 174.903896,79.3608409 C175.749351,78.33225 175.749351,76.8398864 174.905195,75.8138864 C174.374026,75.1648636 174.081818,74.3616818 174.081818,73.5520227 C174.081818,73.0701136 174.18961,72.6218864 174.387013,72.1943864 L187.114286,79.3621364 L187.114286,84.1786364 L174.457143,91.32825 Z M98.3662338,91.5808636 C95.4545455,91.3489773 92.8987013,89.8475455 91.2467532,87.6375 L170.481818,87.6400909 C170.28961,88.3046591 170.185714,88.9925455 170.185714,89.6869091 C170.185714,90.3177955 170.267532,90.9538636 170.422078,91.5717955 L98.3662338,91.5808636 Z M144.045455,138.756136 L48.2584416,138.756136 L48.2584416,27.4105227 L144.045455,27.4105227 L144.045455,68.0554091 L118.651948,68.0398636 C114.174026,61.7141591 106.95974,57.9560455 99.1597403,57.9560455 C85.9987013,57.9560455 75.2909091,68.6370682 75.2909091,81.7639091 C75.2909091,94.8920455 85.9987013,105.573068 99.1597403,105.573068 C106.983117,105.573068 114.194805,101.811068 118.671429,95.4646364 L144.045455,95.4620455 L144.045455,138.756136 Z M134.348052,166.342841 L57.9558442,166.342841 C52.6077922,166.342841 48.2584416,162.003068 48.2584416,156.669682 L48.2584416,142.6425 L144.045455,142.6425 L144.045455,156.669682 C144.045455,162.003068 139.694805,166.342841 134.348052,166.342841 Z M25.5597403,91.5912273 L25.5597403,87.6336136 L44.3623377,87.6349091 L44.3623377,91.5886364 L25.5597403,91.5912273 Z M7.86623377,91.5938182 C7.86623377,91.5938182 7.86623377,91.5938182 7.86493506,91.5938182 C6.80519481,91.5938182 5.80779221,91.1818636 5.05844156,90.4343864 C4.30909091,89.6869091 3.8961039,88.692 3.8961039,87.6336136 L3.8961039,75.8967955 C3.8961039,74.8384091 4.30909091,73.8435 5.05844156,73.0960227 C5.80779221,72.34725 6.80519481,71.9365909 7.86623377,71.9365909 C7.86623377,71.9365909 7.86623377,71.9365909 7.86753247,71.9365909 L12.387013,71.9365909 L12.387013,91.5938182 L7.86623377,91.5938182 Z M44.3623377,75.8955 L25.5597403,75.8967955 L25.5597403,71.9378864 L44.3623377,71.9404773 L44.3623377,75.8955 Z M25.5597403,79.7831591 L44.3623377,79.7818636 L44.3623377,83.7485455 L25.5597403,83.74725 L25.5597403,79.7831591 Z M21.6636364,91.5925227 L16.2831169,91.5925227 L16.2831169,71.9365909 L21.6636364,71.9378864 L21.6636364,91.5925227 Z M58.6545455,3.88636364 L133.649351,3.88636364 C139.381818,3.88636364 144.045455,8.53834091 144.045455,14.2551818 L144.045455,23.5241591 L48.2584416,23.5241591 L48.2584416,14.2551818 C48.2584416,8.53834091 52.9220779,3.88636364 58.6545455,3.88636364 Z M170.584416,75.8890227 L91.2506494,75.8929091 C93.0376623,73.5040909 95.8753247,71.9404773 99.0805195,71.9158636 L99.3779221,71.9404773 L170.363636,71.9586136 C170.245455,72.4755 170.185714,73.0105227 170.185714,73.5520227 C170.185714,74.3487273 170.331169,75.1350682 170.584416,75.8890227 Z M89.287013,81.7639091 C89.287013,81.0850909 89.3558442,80.4205227 89.4883117,79.7792727 L170.437662,79.7753864 C170.280519,80.3777727 170.185714,80.9944091 170.185714,81.6188182 C170.185714,82.3442727 170.297403,83.06325 170.507792,83.7537273 L89.4922078,83.7511364 C89.3597403,83.1085909 89.287013,82.4453182 89.287013,81.7639091 Z M85.3909091,81.7639091 C85.3909091,89.3384318 91.5662338,95.4996136 99.1597403,95.4996136 L101.033766,95.4672273 L113.664935,95.4659318 C109.928571,99.4131818 104.727273,101.686705 99.1597403,101.686705 C88.1480519,101.686705 79.187013,92.7493636 79.187013,81.7639091 C79.187013,70.77975 88.1480519,61.8424091 99.1597403,61.8424091 C104.703896,61.8424091 109.898701,64.1094545 113.635065,68.0372727 L99.1597403,68.0295 C91.5662338,68.0295 85.3909091,74.1906818 85.3909091,81.7639091 Z M188.25974,75.5457273 L187.114286,74.6985 L187.114286,74.8992955 L174.993506,68.07225 L174.441558,68.07225 L147.941558,68.0567045 L147.941558,14.2551818 C147.941558,6.39565909 141.52987,-1.42108547e-14 133.649351,-1.42108547e-14 L58.6545455,-1.42108547e-14 C50.7727273,-1.42108547e-14 44.3623377,6.39565909 44.3623377,14.2551818 L44.3623377,68.0541136 L7.86883117,68.0502273 C7.86753247,68.0502273 7.86623377,68.0502273 7.86493506,68.0502273 C5.76493506,68.0502273 3.79090909,68.8650682 2.3038961,70.3470682 C0.816883117,71.8290682 -8.52651283e-14,73.80075 -8.52651283e-14,75.8967955 L-8.52651283e-14,87.6336136 C-8.52651283e-14,89.7296591 0.816883117,91.7000455 2.3038961,93.1833409 C3.79090909,94.6640455 5.76493506,95.4801818 7.86493506,95.4801818 C7.86623377,95.4801818 7.86623377,95.4801818 7.86753247,95.4801818 L44.3623377,95.475 L44.3623377,156.669682 C44.3623377,164.14575 50.4597403,170.229205 57.9558442,170.229205 L134.348052,170.229205 C141.842857,170.229205 147.941558,164.14575 147.941558,156.669682 L147.941558,95.46075 L174.441558,95.4581591 L175.054545,95.4581591 L187.428571,88.4665909 L187.414286,88.5546818 L187.677922,88.3253864 L199.297403,81.7613182 L188.25974,75.5457273 L188.25974,75.5457273 Z" id="Fill-135"></path>
            <polyline id="Fill-138" points="154.545455 107.679477 177.209091 130.286455 179.963636 127.538795 157.3 104.931818 154.545455 107.679477"></polyline>
            <polygon id="Fill-136" points="77.6792208 15.5454545 115.41039 15.5454545 115.41039 11.6590909 77.6792208 11.6590909"></polygon>
            <polyline id="Fill-139" points="181.581818 35.0303864 178.827273 32.2827273 156.163636 54.8897045 158.918182 57.6386591 181.581818 35.0303864"></polyline>
            <polyline id="Fill-140" points="10.3896104 125.673341 13.1441558 128.421 35.8077922 105.814023 33.0532468 103.066364 10.3896104 125.673341"></polyline>
            <polyline id="Fill-141" points="10.3896104 35.0303864 33.0532468 57.6386591 35.8077922 54.8897045 13.1441558 32.2827273 10.3896104 35.0303864"></polyline>
            <path d="M70.787013,71.7746591 L67.0532468,70.6605682 C66.1142857,73.7916818 65.638961,77.0523409 65.638961,80.3518636 C65.638961,83.9843182 66.2142857,87.5623636 67.3506494,90.9823636 L71.0493506,89.7594545 C70.0441558,86.7358636 69.5350649,83.5684773 69.5350649,80.3518636 C69.5350649,77.4293182 69.9558442,74.5430455 70.787013,71.7746591" id="Fill-142"></path>
            <path d="M100.042857,119.575636 C98.3051948,119.575636 96.5532468,119.460341 94.8350649,119.232341 L94.3233766,123.086318 C96.2103896,123.335045 98.1337662,123.462 100.042857,123.462 C105.85974,123.462 111.5,122.325886 116.811688,120.08475 L115.292208,116.504114 C110.464935,118.541864 105.335065,119.575636 100.042857,119.575636" id="Fill-143"></path>
            <path d="M137.242857,49.5770455 L140.232468,47.0871818 C134.933766,40.7511136 128.128571,35.6988409 120.553247,32.4744545 L119.023377,36.0486136 C126.036364,39.0333409 132.335065,43.7099318 137.242857,49.5770455" id="Fill-144"></path>
            <path d="M67.0155844,49.3257273 C63.8233766,52.7353636 61.1922078,56.5945227 59.1974026,60.7943864 L62.7181818,62.4590455 C64.5415584,58.6206136 66.9454545,55.0956818 69.8649351,51.9762273 L67.0155844,49.3257273" id="Fill-145"></path>
        </g>
    </g>
</svg>