<?xml version="1.0" encoding="UTF-8"?>
<svg width="200px" height="200px" viewBox="0 0 200 200" version="1.1" xmlns="http://www.w3.org/2000/svg" xmlns:xlink="http://www.w3.org/1999/xlink">
    <!-- Generator: Sketch 55.2 (78181) - https://sketchapp.com -->
    <title>Other</title>
    <desc>Created with Sketch.</desc>
    <g id="Other" stroke="none" stroke-width="1" fill="none" fill-rule="evenodd">
        <g id="Group" transform="translate(5.000000, 0.000000)" fill="#ffffff">
            <path d="M90.0018657,182.452482 L77.71,160.740426 C78.8570896,159.991489 80.3246269,159.546099 81.7283582,159.546099 C83.2597015,159.546099 84.7754478,160.096454 85.9934328,161.093617 C87.2794776,162.143262 89.1454478,162.143262 90.4329104,161.093617 C92.8674627,159.099291 96.5256716,159.096454 98.9658955,161.093617 C99.608209,161.61844 100.396567,161.88227 101.183507,161.88227 C101.971866,161.88227 102.760224,161.619858 103.403955,161.093617 C105.634328,159.268085 108.817537,159.036879 111.219478,160.64539 L98.910597,182.452482 L90.0018657,182.452482 Z M86.0147015,153.360284 L86.0147015,156.209929 C83.394403,155.114894 80.3785075,155.038298 77.6972388,156.021277 L77.6972388,153.360284 L86.0147015,153.360284 Z M12.761194,116.571631 L27.7201493,116.571631 L27.7201493,114.443972 C27.7201493,110.587234 28.0675373,106.784397 28.721194,103.06383 L36.1198507,104.590071 L36.9776866,100.424113 L29.591791,98.9007092 C30.3021642,95.9716312 31.208209,93.1078014 32.2971642,90.3234043 L46.3217164,96.2865248 L47.9863433,92.3687943 L33.9745522,86.4113475 C35.1131343,83.9716312 36.3935075,81.6042553 37.81,79.3219858 L44.0445522,83.4680851 L46.3982836,79.9248227 L40.1708209,75.7843972 C41.9091791,73.341844 43.8020896,71.0113475 45.8495522,68.8198582 L56.6100746,79.5843972 L59.6174627,76.5758865 L48.8526866,65.8070922 C51.1014925,63.6836879 53.4920896,61.7021277 56.0258955,59.9007092 L60.1605224,66.1829787 L63.713806,63.8425532 L59.5763433,57.5560284 C62.1158209,55.9858156 64.7673134,54.5702128 67.529403,53.3460993 L73.245,67.5177305 L73.4222388,67.4468085 L73.4264925,82.2865248 C62.5270149,89.4283688 56.0329851,101.387234 56.0329851,114.443972 L56.0329851,116.571631 L132.89791,116.571631 L132.89791,114.443972 C132.89791,101.417021 126.396791,89.4156028 115.504403,82.2737589 L115.507239,67.4836879 L116.542313,67.9234043 L122.517388,53.8638298 C124.971791,55.0070922 127.338284,56.2950355 129.611194,57.7163121 L125.435448,64 L128.977388,66.3546099 L133.147463,60.0794326 C135.59194,61.8340426 137.903134,63.7503546 140.079627,65.8056738 L129.32194,76.5659574 L132.329328,79.5744681 L143.082761,68.8184397 C145.198284,71.0851064 147.150746,73.4950355 148.935896,76.0269504 L142.694254,80.1375887 L145.03097,83.6921986 L151.276866,79.5787234 C152.845075,82.1304965 154.244552,84.7858156 155.463955,87.5319149 L141.364254,93.222695 L142.956567,97.1673759 L157.067612,91.4723404 C157.999179,93.987234 158.781866,96.564539 159.407164,99.1943262 L152.028358,100.679433 L152.867761,104.852482 L160.265,103.363121 C160.884627,106.987234 161.209328,110.69078 161.209328,114.443972 L161.209328,116.571631 L176.168284,116.571631 L176.168284,149.104965 L171.541642,149.104965 L171.541642,141.879433 L167.28791,141.879433 L167.28791,149.104965 L160.788209,149.104965 L160.788209,133.77305 L156.534478,133.77305 L156.534478,149.104965 L150.036194,149.104965 L150.036194,141.879433 L145.782463,141.879433 L145.782463,149.104965 L139.285597,149.104965 L139.285597,133.77305 L135.031866,133.77305 L135.031866,149.104965 L128.533582,149.104965 L128.533582,141.879433 L124.279851,141.879433 L124.279851,149.104965 L117.782985,149.104965 L117.782985,133.77305 L113.529254,133.77305 L113.529254,149.104965 L107.03097,149.104965 L107.03097,141.879433 L102.777239,141.879433 L102.777239,149.104965 L96.2803731,149.104965 L96.2803731,133.77305 L92.0266418,133.77305 L92.0266418,149.104965 L85.5283582,149.104965 L85.5283582,141.879433 L81.2746269,141.879433 L81.2746269,149.104965 L74.7763433,149.104965 L74.7763433,133.77305 L70.5226119,133.77305 L70.5226119,149.104965 L64.0257463,149.104965 L64.0257463,141.879433 L59.7720149,141.879433 L59.7720149,149.104965 L53.2737313,149.104965 L53.2737313,133.77305 L49.02,133.77305 L49.02,149.104965 L42.5231343,149.104965 L42.5231343,141.879433 L38.269403,141.879433 L38.269403,149.104965 L31.7711194,149.104965 L31.7711194,133.77305 L27.5173881,133.77305 L27.5173881,149.104965 L21.0205224,149.104965 L21.0205224,141.879433 L16.766791,141.879433 L16.766791,149.104965 L12.761194,149.104965 L12.761194,116.571631 Z M73.419403,56.5787234 L71.4754478,51.7588652 C72.1191791,51.5219858 72.7657463,51.2921986 73.4179851,51.0751773 L73.419403,56.5787234 Z M79.8198507,6.4141844 C81.2108209,5.02269504 83.061194,4.25531915 85.0292537,4.25531915 L103.900224,4.25531915 C105.868284,4.25531915 107.718657,5.02269504 109.109627,6.4141844 C110.502015,7.8070922 111.267687,9.65673759 111.267687,11.6269504 L111.264851,19.8737589 L77.6646269,19.8737589 L77.661791,11.6269504 C77.661791,9.65673759 78.4288806,7.8070922 79.8198507,6.4141844 Z M115.502985,87.5120567 C123.22209,93.5404255 127.976343,102.514894 128.578955,112.316312 L115.495896,112.316312 L115.502985,87.5120567 Z M102.910522,112.316312 L102.902015,39.0156028 L111.260597,39.0156028 L111.242164,112.316312 L102.910522,112.316312 Z M90.281194,39.0156028 L98.6482836,39.0156028 L98.656791,112.316312 L90.2726866,112.316312 L90.281194,39.0156028 Z M77.6674627,34.7602837 L111.262015,34.7602837 L111.262015,31.6113475 L77.6674627,31.6113475 L77.6674627,34.7602837 Z M111.263433,27.3560284 L77.6660448,27.3560284 L77.6660448,24.129078 L111.264851,24.129078 L111.263433,27.3560284 Z M77.6873134,112.316312 L77.6688806,39.0156028 L86.0274627,39.0156028 L86.0189552,112.316312 L77.6873134,112.316312 Z M73.4335821,112.316312 L60.3505224,112.316312 C60.9517164,102.492199 65.7002985,93.5333333 73.4279104,87.5078014 L73.4335821,112.316312 Z M118.608209,52.1815603 L115.508657,59.4751773 L115.511493,51.0723404 C116.555075,51.4198582 117.590149,51.7843972 118.608209,52.1815603 Z M90.2684328,153.360284 L98.6610448,153.360284 L98.6624627,156.104965 C95.9641791,155.086525 92.9156716,155.150355 90.2684328,156.293617 L90.2684328,153.360284 Z M111.232239,155.903546 C108.606269,154.95461 105.536493,155.170213 102.916194,156.422695 L102.914776,153.360284 L111.233657,153.360284 L111.232239,155.903546 Z M115.484552,161.120567 L115.487388,153.360284 L180.422015,153.360284 L180.422015,112.316312 L165.431866,112.316312 C164.517313,82.248227 144.285149,55.5347518 115.51291,46.6056738 L115.521418,11.6269504 C115.522836,8.52198582 114.313358,5.60283688 112.118433,3.40567376 C109.923507,1.20851064 107.005448,0 103.900224,0 L85.0292537,0 C81.9240299,0 79.0059701,1.20851064 76.8110448,3.40567376 C74.6161194,5.60283688 73.4066418,8.52198582 73.4080597,11.6269504 L73.4179851,46.6056738 C44.6485821,55.5333333 24.4135821,82.2553191 23.4976119,112.316312 L8.50746269,112.316312 L8.50746269,153.360284 L73.4435075,153.360284 L73.4449254,161.120567 L73.4449254,161.841135 L94.4682836,198.974468 L103.629403,182.746099 L103.846343,182.452482 L103.795299,182.452482 L115.484552,161.743262 L115.484552,161.120567 L115.484552,161.120567 Z" id="Fill-98"></path>
            <polygon id="Fill-99" points="2.38776119 60.7234043 -2.66453526e-15 64.2439716 17.4516418 76.0907801 19.8379851 72.5702128"></polygon>
            <polygon id="Fill-100" points="44.9321642 36.8680851 48.4514179 34.4794326 36.6090299 17.0212766 33.0897761 19.4099291"></polygon>
            <polygon id="Fill-101" points="189.991493 64.2439716 187.605149 60.7234043 170.15209 72.5702128 172.539851 76.0907801"></polygon>
            <polygon id="Fill-102" points="145.059328 36.8680851 156.900299 19.4099291 153.381045 17.0212766 141.538657 34.4794326"></polygon>
        </g>
    </g>
</svg>