<?xml version="1.0" encoding="utf-8"?>
<!-- Generator: Adobe Illustrator 23.0.4, SVG Export Plug-In . SVG Version: 6.00 Build 0)  -->
<svg version="1.1" xmlns="http://www.w3.org/2000/svg" xmlns:xlink="http://www.w3.org/1999/xlink" x="0px" y="0px"
	 viewBox="0 0 1892.85 1964" style="enable-background:new 0 0 1892.85 1964;" xml:space="preserve">
<style type="text/css">
	.st0{fill:#9DDBD8;}
	.st1{fill:#32968C;}
	.st2{fill:#2C8C80;}
	.st3{fill:#E27A13;}
	.st4{fill:#EE9328;}
	.st5{fill:#EFAB7D;}
	.st6{fill:#683814;}
	.st7{fill:#DD9666;}
	.st8{fill:#F7BE97;}
	.st9{fill:#CEEFEC;}
	.st10{fill:#0F564A;}
	.st11{fill:#14685C;}
	.st12{fill:#FFFFFF;}
	.st13{fill:#F9A55A;}
	.st14{fill:#E06714;}
	.st15{fill:#543012;}
	.st16{fill:#E44822;}
	.st17{fill:#70C4B7;}
	.st18{fill:#81D3C3;}
</style>
<g id="Background">
</g>
<g id="Illustration">
	<g>
		
			<ellipse transform="matrix(0.7071 -0.7071 0.7071 0.7071 -442.3349 967.2647)" class="st0" cx="946.42" cy="1017.58" rx="946.42" ry="946.42"/>
		
			<ellipse transform="matrix(0.7071 -0.7071 0.7071 0.7071 -442.3349 967.2647)" class="st0" cx="946.42" cy="1017.58" rx="946.42" ry="946.42"/>
		
			<ellipse transform="matrix(0.7071 -0.7071 0.7071 0.7071 -442.3349 967.2647)" class="st0" cx="946.42" cy="1017.58" rx="946.42" ry="946.42"/>
		
			<ellipse transform="matrix(0.7071 -0.7071 0.7071 0.7071 -442.3349 967.2647)" class="st1" cx="946.42" cy="1017.58" rx="946.42" ry="946.42"/>
		<path class="st2" d="M1867.98,801.19c8.46,50.87,12.86,103.1,12.86,156.36c0,522.7-423.73,946.42-946.42,946.42
			c-448.25,0-823.7-311.62-921.56-730.04C87.39,1622.23,476.99,1964,946.42,1964c522.7,0,946.42-423.73,946.42-946.42
			C1892.85,943.13,1884.24,870.69,1867.98,801.19z"/>
		<path class="st3" d="M1646.4,1654.58l-47.67-463.34c-1.78-17.09-7.3-33.24-15.81-47.89c-27.57-47.42-86.52-79.08-151.27-76.03
			c-84.75,4-147.35,65.97-139.82,138.4l68.24,663.34C1468.78,1816.15,1565.86,1743.02,1646.4,1654.58z"/>
		<path class="st4" d="M1646.83,1654.1l-48.1-462.86c-1.78-17.09-7.3-33.24-15.81-47.89c-25.18-43.31-70.08-68.02-117.25-74.5
			c37.97,12.17,69.66,36.53,87.78,67.7c8.52,14.64,14.04,30.79,15.82,47.89l73.11,474.54
			C1643.86,1657.35,1645.35,1655.73,1646.83,1654.1z"/>
		<path class="st4" d="M1432.81,1829.62l-12.58-755.83c0,0-279.1-27.68-475.17-25.37c-163.77,1.93-489.01,25.37-489.01,25.37
			l0.01,753.43C599.07,1914.02,766.91,1964,946.42,1964C1124.27,1964,1290.67,1914.94,1432.81,1829.62z"/>
		<g>
			<g>
				<path class="st5" d="M755.99,1015.81c-2.23,65.68,80.86,121.8,188.08,125.43l0,0c107.22,3.64,193.92-46.72,196.14-112.4
					l18.03-441.93c2.23-65.68-82.88-121.87-190.1-125.51l0,0c-107.21-3.63-195.94,46.66-198.17,112.34L755.99,1015.81z"/>
				<g>
					<g>
						<g>
							<g>
								<path class="st6" d="M929.68,33.43c2.36-0.1,4.72-0.21,7.09-0.31c196.79-7.81,358.12,31.35,364.92,202.58l0.75,194.38
									c0.19,4.95-20.8,39.68-20.84,45.1l-335.08-17.3L929.68,33.43z"/>
								<path class="st6" d="M933.75,33.27c-2.36,0.08-4.72,0.16-7.09,0.26c-196.79,7.81-354.51,59.64-347.72,230.86l5.2,160.3
									c0.2,4.95,33.34,71.44,33.81,76.83l332.65-43.8L933.75,33.27z"/>
							</g>
							<path class="st7" d="M967.82,981.12c65.39-2.6,125.86-14.21,175.84-36.69l14.59-357.51c2.23-65.68-82.88-121.87-190.1-125.51
								c-107.21-3.63-195.94,46.66-198.17,112.34l-11.75,371.44C815.53,973.64,888.6,984.26,967.82,981.12z"/>
							<path class="st8" d="M636.07,715.69c7.06,177.83,153.92,240.13,331.75,233.07l0,0c177.83-7.06,319.29-80.8,312.23-258.63
								l-14.37-362.24c-7.06-177.83-153.1-219.36-330.93-212.31l0,0c-177.83,7.06-320.12,60.03-313.06,237.87L636.07,715.69z"/>
							<path class="st5" d="M1014.28,719.91c-0.69-17.46-15.41-31.06-32.87-30.36c-1.1,0.04-2.18,0.14-3.25,0.29l-3.88-97.58
								c-0.56-14.25-12.57-25.35-26.83-24.78c-14.25,0.56-25.35,12.58-24.78,26.83l3.88,97.72c-1.44-0.14-2.91-0.19-4.39-0.14
								c-17.46,0.69-31.06,15.41-30.36,32.88c0.69,17.46,15.41,31.06,32.88,30.36c3.79-0.15,7.4-0.96,10.72-2.32
								c4.94,5.2,12.01,8.33,19.74,8.02c7.59-0.3,14.28-3.85,18.8-9.25c3.16,0.91,6.52,1.34,9.99,1.2
								C1001.38,752.1,1014.97,737.38,1014.28,719.91z"/>
						</g>
					</g>
					<path class="st7" d="M1189.36,357.78c-14.75-7.12-31.66-12.81-49.96-16.43c-40.88-8.09-79.27-3.98-104.65,8.93l12.03,33.92
						c24.26-15.52,63.1-22.94,105.5-17.77c11.96,1.46,23.4,3.82,34.11,6.93L1189.36,357.78z"/>
					<path class="st7" d="M694.93,361.26c14.48-7.67,31.15-13.99,49.3-18.3c27.38-6.5,53.82-7.39,76.08-3.6
						c2.37,6.43,5.36,17.26,5.36,17.26l7.14-14.54c5.87,1.59,11.35,3.55,16.35,5.86l-10.75,34.35
						c-24.83-14.59-63.92-20.55-106.1-13.79c-11.9,1.91-23.24,4.7-33.83,8.21L694.93,361.26z"/>
					<path class="st5" d="M1021.47,846.21c-11.43,8.83-32.17,26.98-47.77,30.29c-13.81,2.93-34.62,3.12-48.8,0.1
						c-15.79-3.38-35.59-20.95-47.47-30.38H1021.47z"/>
					<path class="st7" d="M1021.47,846.26c-11.43-8.83-30.17-17.99-45.77-21.3c-13.81-2.93-26.23,5.77-26.23,5.77
						s-12.3-8.66-26.47-5.63c-15.79,3.38-33.69,11.72-45.57,21.16c0,0,38.63,6.96,71.57,6.96
						C982.99,853.22,1021.47,846.26,1021.47,846.26z"/>
				</g>
			</g>
		</g>
		<path class="st6" d="M610.77,185.9C585,145.41,667.83,75.46,745.14,40.49C809.87,11.21,879.5,0,879.5,0l-12.89,36.81L984.41,9.2
			l-20.25,31.29l115.96-27.61l-34.97,55.22l196.95,106.75l-233.76-79.15l-285.29,11.04l-69.94,58.9L610.77,185.9z"/>
		<path class="st6" d="M686.24,147.25c44.18-11.04,127-14.72,182.22,0c55.22,14.73,108.6,11.04,149.09-5.52
			c40.49-16.56,149.09,1.84,149.09,1.84l-14.73-60.74L905.27,69.94L776.43,82.83L686.24,147.25z"/>
		<polygon class="st9" points="730.54,1140.69 755.91,1073.79 993.5,1108.39 1173.42,1057.65 1097.3,1320.6 998.11,1798.08 
			949.9,1932.39 813.58,1472.84 797.43,1286.01 		"/>
		<path class="st0" d="M1199.78,1124.74l-61.77-113.88c0,0-28.98,56.13-78.47,78.13c-44.05,19.58-103.35,28.27-115.87,29.94
			c-12.52-1.67-71.81-10.36-115.87-29.94c-49.5-22-78.48-78.13-78.48-78.13l-61.77,113.88l211.75,107.25l44.37-107l44.37,107
			L1199.78,1124.74z"/>
		<polygon class="st10" points="1000.42,1823.95 995.8,1442.86 963.51,1216.81 945.08,1203.9 945.06,1200.66 942.75,1202.27 
			940.44,1200.66 940.43,1203.9 921.99,1216.81 889.7,1442.86 885.09,1756 950.25,1922.8 		"/>
		<polygon class="st11" points="1032.31,1141.16 942.41,1089.78 942.01,1089.56 941.61,1089.33 851.71,1141.16 887.99,1244.81 
			941.61,1252.47 942.01,1252.52 942.41,1252.47 996.03,1244.81 		"/>
		<path class="st12" d="M827.81,1052.41c49.5,22,118.25,30.25,118.25,30.25l-46.75,112.75l-211.75-107.25l61.77-113.88
			C749.33,974.28,778.31,1030.42,827.81,1052.41z"/>
		<path class="st12" d="M1059.54,1052.41c-49.5,22-118.25,30.25-118.25,30.25l46.75,112.75l211.75-107.25l-61.77-113.88
			C1138.01,974.28,1109.04,1030.42,1059.54,1052.41z"/>
		<polygon class="st13" points="753.56,972.67 749.33,974.28 572.06,1154.16 775.56,1327.41 676.56,1382.41 950.75,1932.39 		"/>
		<polygon class="st13" points="1144.05,972.67 1148.27,974.28 1325.54,1154.16 1122.05,1327.41 1221.05,1382.41 949.9,1932.39 		
			"/>
		<path class="st13" d="M943.87,1963.99c0.85,0,1.71,0.01,2.56,0.01c4.08,0,8.14-0.03,12.21-0.08v-45.14h-14.77V1963.99z"/>
		<path class="st14" d="M580.04,1047.92c-53.78-36.2-120.6-39.69-168.77-13.45c-14.88,8.11-27.97,19.05-38.36,32.74l-277.2,365.58
			c47.55,97.25,111.3,185.14,187.71,260.16l344.39-454.18C671.82,1180.74,650.42,1095.3,580.04,1047.92z"/>
		<path class="st3" d="M411.27,1034.47c-14.88,8.11-27.97,19.05-38.36,32.74l-277.2,365.58c0.88,1.8,1.76,3.59,2.65,5.38
			l303.28-361.48c10.38-13.69,23.48-24.64,38.35-32.74c31.66-17.25,71.39-21.65,110.17-12.36
			C506.47,1012.66,455.25,1010.51,411.27,1034.47z"/>
		<path class="st3" d="M418.87,1141.91l-300.14,334.96c54.34,97.72,125.49,184.82,209.54,257.38l345.11-344.48
			c49.3-44.67,36.46-104.12-21.63-168.22C651.75,1221.56,488.56,1067.42,418.87,1141.91z"/>
		<g>
			<path class="st5" d="M1135.83,671.6c-63.06,1.3-135.44-84.73-136.88-154.23c-0.12-6.02,0.29-11.68,1.17-17.02
				c-10.98,13.54-17.41,30.8-16.96,52.55c1.44,69.51,73.82,155.54,136.88,154.24c51.58-1.07,100.69-28.15,120.69-93.45
				C1216.23,653.48,1176.81,670.76,1135.83,671.6z"/>
			<path class="st5" d="M754.48,671.6c-63.06,1.3-135.44-84.73-136.87-154.23c-0.12-6.02,0.29-11.68,1.17-17.02
				c-10.98,13.54-17.41,30.8-16.96,52.55c1.43,69.51,73.82,155.54,136.88,154.24c51.58-1.07,100.69-28.15,120.69-93.45
				C834.88,653.48,795.46,670.76,754.48,671.6z"/>
			<g>
				<path class="st5" d="M1119,481.1c-40.54,0-76.47,30.61-98.7,77.72c22.23,47.11,58.15,77.71,98.7,77.71
					c40.54,0,76.47-30.61,98.7-77.71C1195.46,511.71,1159.54,481.1,1119,481.1z"/>
				<path class="st15" d="M1119.58,499.63c-54.07,1.94-77.05,32.55-99.27,62.95c22.23,30.4,58.15,50.15,98.7,50.15
					c40.54,0,76.47-19.75,98.7-50.15C1195.46,532.18,1170.33,497.81,1119.58,499.63z"/>
				<path class="st12" d="M1119,512.43c-40.54,0-76.47,19.75-98.7,50.15c22.23,30.4,58.15,50.15,98.7,50.15
					c40.54,0,76.47-19.75,98.7-50.15C1195.46,532.18,1159.54,512.43,1119,512.43z"/>
				<path class="st1" d="M1078.62,519.31c-5.54,8.19-8.78,18.07-8.78,28.7c0,28.33,22.97,51.3,51.3,51.3
					c28.33,0,51.3-22.97,51.3-51.3c0-9.75-2.77-18.83-7.49-26.59c-14.19-5.77-29.69-8.99-45.95-8.99
					C1104.84,512.43,1091.27,514.88,1078.62,519.31z"/>
				<path class="st15" d="M1106.46,513.12c-13.61,5.74-23.17,19.2-23.17,34.9c0,20.91,16.95,37.86,37.86,37.86
					c20.91,0,37.86-16.95,37.86-37.86c0-15.08-8.84-28.07-21.61-34.15c-6-0.91-11.11-4-17.36-4
					C1115.79,509.86,1110.58,512.69,1106.46,513.12z"/>
				<path class="st12" d="M1164.38,562.35c0,4.45-3.61,8.07-8.06,8.07c-4.46,0-8.06-3.61-8.06-8.07c0-4.45,3.61-8.06,8.06-8.06
					C1160.77,554.29,1164.38,557.9,1164.38,562.35z"/>
			</g>
			<path class="st11" d="M1306.39,459.38c0,0-36.25,4.65-57.22-5.29c-20.98-9.97-52.57-30.77-100.59-31.67
				c-66.22-1.22-134.44,26.12-170.14,56.73c-9.92,8.49-31.53,14.6-45.73,17.89c-14.21-3.29-35.81-9.4-45.73-17.89
				c-35.7-30.6-103.92-57.95-170.14-56.73c-48.03,0.9-79.62,21.7-100.59,31.67c-20.97,9.94-57.22,5.29-57.22,5.29l-2.64,64.85
				c0,0,22.44,2.56,24.13,25.17c2.04,27.29,6.16,91.5,51.42,132.92c34.59,31.66,125.54,67.3,198.75,4.69
				c45.01-38.5,66.47-103.17,72.51-112.78c4.83-7.69,18.98-13.78,29.52-17.41c10.54,3.64,24.69,9.72,29.52,17.41
				c6.04,9.61,27.5,74.28,72.51,112.78c73.2,62.61,164.16,26.97,198.75-4.69c45.26-41.42,49.37-105.63,51.42-132.92
				c1.7-22.61,24.13-25.17,24.13-25.17L1306.39,459.38z M880.27,552.99c-1.43,69.51-73.82,138.26-136.87,136.95
				c-63.06-1.31-122.44-24.2-129.43-125.59c-5.62-81.57,37.37-112.15,135.9-107.51C812.87,459.79,881.7,483.49,880.27,552.99z
				 M1251.45,564.35c-6.99,101.39-66.37,124.28-129.43,125.59c-63.06,1.3-135.44-67.45-136.88-136.95
				c-1.44-69.49,67.39-93.2,130.41-96.14C1214.08,452.21,1257.07,482.79,1251.45,564.35z"/>
		</g>
		<g>
			<g>
				<path class="st16" d="M809.26,1104.57c0,20.6-16.7,37.29-37.29,37.29l0,0c-20.6,0-37.29-16.7-37.29-37.29V764.81
					c0-20.59,16.69-37.29,37.29-37.29l0,0c20.59,0,37.29,16.7,37.29,37.29V1104.57z"/>
				<path class="st16" d="M1003.81,541.48c0,128.05-103.8,231.85-231.84,231.85c-128.04,0-231.85-103.8-231.85-231.85
					c0-128.04,103.81-231.85,231.85-231.85C900.01,309.64,1003.81,413.44,1003.81,541.48z"/>
				<g>
					
						<ellipse transform="matrix(0.0125 -0.9999 0.9999 0.0125 220.8773 1306.62)" class="st17" cx="771.96" cy="541.48" rx="181.98" ry="181.98"/>
					<path class="st18" d="M771.96,695.01c-95.71,0-174.17-73.9-181.43-167.75c-0.36,4.7-0.55,9.44-0.55,14.23
						c0,100.5,81.48,181.98,181.98,181.98c100.5,0,181.98-81.47,181.98-181.98c0-4.79-0.19-9.53-0.55-14.23
						C946.14,621.11,867.68,695.01,771.96,695.01z"/>
					<path class="st18" d="M742.5,404.42c93.23,0,172.1,61.5,198.25,146.15c0.22-3.51,0.35-7.05,0.35-10.62
						c0-92.26-74.8-167.06-167.07-167.06c-47.52,0-90.4,19.84-120.82,51.69C680.25,411.66,710.52,404.42,742.5,404.42z"/>
				</g>
				<g>
					<path class="st1" d="M772.39,440.05c-60,0-113.16,45.3-146.06,115.01c32.89,69.72,86.06,115.01,146.06,115.01
						s113.16-45.29,146.06-115.01C885.55,485.35,832.39,440.05,772.39,440.05z"/>
					<path class="st15" d="M773.24,467.48c-80.01,2.87-114.02,48.17-146.91,93.15c32.89,44.98,86.06,74.21,146.06,74.21
						s113.16-29.23,146.06-74.21C885.55,515.65,848.36,464.78,773.24,467.48z"/>
					<path class="st12" d="M772.39,486.42c-60,0-113.16,29.23-146.06,74.21c32.89,44.98,86.06,74.21,146.06,74.21
						s113.16-29.23,146.06-74.21C885.55,515.65,832.39,486.42,772.39,486.42z"/>
					<path class="st1" d="M712.63,496.6c-8.19,12.12-12.99,26.74-12.99,42.47c0,41.92,33.99,75.91,75.91,75.91
						c41.92,0,75.91-33.99,75.91-75.91c0-14.43-4.1-27.87-11.09-39.35c-21-8.54-43.93-13.31-68-13.31
						C751.44,486.42,731.35,490.05,712.63,496.6z"/>
					<path class="st15" d="M753.82,487.43c-20.14,8.49-34.28,28.41-34.28,51.64c0,30.94,25.08,56.03,56.02,56.03
						c30.94,0,56.02-25.09,56.02-56.03c0-22.32-13.08-41.53-31.98-50.54c-8.88-1.34-16.44-5.92-25.69-5.92
						C767.64,482.62,759.93,486.81,753.82,487.43z"/>
					<path class="st12" d="M839.54,560.29c0,6.59-5.34,11.93-11.93,11.93c-6.6,0-11.94-5.34-11.94-11.93
						c0-6.59,5.34-11.93,11.94-11.93C834.2,548.36,839.54,553.71,839.54,560.29z"/>
				</g>
			</g>
			<g>
				<path class="st5" d="M732.98,1144.36c-22.86,56.01-86.8,82.88-142.81,60.02l-11.97-4.89c-56.01-22.86-82.88-86.8-60.02-142.81
					l78.49-189.6c22.86-56.01,51.65,15.38,107.66,38.25l11.97,4.89c56.01,22.87,77.01,65.6,54.14,121.61L732.98,1144.36z"/>
				<path class="st5" d="M659.77,900.31c-8.65,17.81-30.09,25.23-47.89,16.58l0,0c-17.8-8.64-25.22-30.08-16.58-47.89l46.32-95.35
					c8.64-17.81,30.09-25.23,47.89-16.58l0,0c17.8,8.65,25.22,30.09,16.58,47.9L659.77,900.31z"/>
				<path class="st5" d="M691.04,812.39c-19.28,6.84-40.27-2.72-46.89-21.38l0,0c-6.63-18.64,3.63-39.31,22.91-46.16l103.24-36.67
					c19.28-6.84,40.27,2.72,46.89,21.37l0,0c6.63,18.65-3.63,39.32-22.91,46.17L691.04,812.39z"/>
				<g>
					<path class="st5" d="M668.29,932.72c-19.07,5.3-38.83-5.85-44.13-24.92l0,0c-5.31-19.06,5.84-38.82,24.91-44.14l102.12-28.44
						c19.07-5.31,38.83,5.85,44.13,24.91l0,0c5.31,19.07-5.84,38.83-24.91,44.14L668.29,932.72z"/>
					<path class="st5" d="M742.52,900.12c-16.71-10.6-21.66-32.75-11.06-49.46l0,0c10.59-16.72,32.74-21.67,49.46-11.06l89.51,56.79
						c16.71,10.61,21.66,32.75,11.06,49.46l0,0c-10.6,16.71-32.75,21.66-49.46,11.06L742.52,900.12z"/>
				</g>
				<path class="st7" d="M877.19,951.36l-89.67-43.92c-6.44-4.45-14.24-6.72-22.2-6.32c-0.3,0.01-0.6,0.01-0.89,0.03
					c-0.14,0.01-0.28,0.02-0.42,0.04c-5.25,0.34-10.36,1.83-14.95,4.34l-38.46,15.43l45.01-12.54l76.44,48.5
					C846.73,966.24,865.63,963.52,877.19,951.36z"/>
				<g>
					<g>
						<path class="st5" d="M672.34,1005.69c-19.07,5.31-38.83-5.85-44.14-24.92l0,0c-5.31-19.06,5.84-38.82,24.91-44.13
							l102.12-28.44c19.06-5.31,38.82,5.84,44.13,24.9l0,0c5.31,19.08-5.84,38.83-24.91,44.14L672.34,1005.69z"/>
					</g>
					<g>
						<path class="st5" d="M744.79,972.93c-16.71-10.61-21.66-32.75-11.05-49.45l0,0c10.59-16.72,32.74-21.67,49.46-11.07
							l89.51,56.8c16.71,10.61,21.67,32.74,11.06,49.45l0,0c-10.6,16.72-32.75,21.67-49.46,11.07L744.79,972.93z"/>
					</g>
				</g>
				<path class="st7" d="M770.66,1030.07c4.7-11.52,7.51-22.47,8.59-32.81c-0.93-0.02-1.85-0.04-2.79,0.01l-98.75,23.05
					c-19.77,1.07-42.04,0.58-40.97,20.34c1.06,19.77,17.94,34.92,37.71,33.87l82.75-4.45L770.66,1030.07z"/>
				<path class="st7" d="M758.57,981.64l75.73,48.06c11.87,7.53,26.45,7.18,37.71,0.39c-2.21-6.05-6.2-11.13-11.85-14.25
					l-70.68-39.11c-2.23-1.56-4.63-2.86-7.15-3.87c-3.97-1.96-8.28-2.78-12.66-2.57c-4.09-0.08-8.26,0.5-12.36,1.91l-99.8,34.37
					c4.81,0.72,9.84,0.48,14.83-0.91L758.57,981.64z"/>
				<path class="st8" d="M803.65,732.84c-4.87-11.81-18.4-17.44-30.21-12.57l-10.99,4.54c-4.42,4.41-4.82,14.77-0.51,25.2
					c4.33,10.5,11.97,17.59,18.24,17.53l10.9-4.5C802.9,758.17,808.51,744.65,803.65,732.84z"/>
				<path class="st8" d="M874.9,937.47c6.37-11.08,2.54-25.22-8.53-31.59l-10.31-5.92c-6.19-0.8-14.63,5.23-20.25,15.01
					c-5.66,9.85-6.6,20.23-2.71,25.15l10.23,5.87C854.4,952.37,868.53,948.54,874.9,937.47z"/>
				<path class="st8" d="M876.17,1011.06c6.37-11.08,2.54-25.22-8.53-31.59l-10.31-5.92c-6.2-0.8-14.63,5.23-20.25,15.01
					c-5.66,9.85-6.6,20.23-2.72,25.15l10.23,5.87C855.67,1025.95,869.81,1022.13,876.17,1011.06z"/>
				<g>
					<path class="st5" d="M668.28,1079.44c-19.07,5.31-38.83-5.84-44.14-24.91l0,0c-5.31-19.06,5.84-38.81,24.91-44.13l102.13-28.44
						c19.06-5.31,38.83,5.84,44.13,24.91l0,0c5.31,19.07-5.84,38.83-24.91,44.14L668.28,1079.44z"/>
					<path class="st5" d="M738.73,1045.2c-13.83-8.78-16.45-29.44-5.84-46.15l0,0c10.59-16.71,30.4-23.15,44.24-14.37l74.08,47.01
						c13.83,8.78,16.46,29.44,5.85,46.15l0,0c-10.6,16.71-30.41,23.14-44.25,14.37L738.73,1045.2z"/>
				</g>
				<path class="st8" d="M847.04,1072.01c6.37-11.08,2.54-25.22-8.53-31.59l-10.31-5.92c-6.2-0.8-14.63,5.23-20.25,15.01
					c-5.66,9.85-6.6,20.23-2.71,25.15l10.23,5.87C826.55,1086.91,840.68,1083.08,847.04,1072.01z"/>
			</g>
			<g>
				<path class="st14" d="M543.13,1257.71c55.08,34.97,112.16,43.73,127.51,19.56c15.34-24.16-16.87-72.09-71.95-107.06
					c-55.08-34.97-112.16-43.72-127.5-19.56C455.84,1174.82,488.05,1222.74,543.13,1257.71z"/>
				<polygon class="st5" points="608.02,1350.77 404.67,1307.02 532.18,1106.47 702.46,1179.69 				"/>
				<path class="st3" d="M543.13,1257.71c-55.08-34.97-87.29-82.9-71.95-107.06l-130.12,177.32l272.68,39.77l56.89-90.47
					C655.29,1301.44,598.21,1292.68,543.13,1257.71z"/>
			</g>
			<path class="st8" d="M693.59,794.03c-1.06,1.3-2.96,1.49-4.26,0.43l-26.77-21.87c-1.29-1.06-1.49-2.97-0.43-4.26l0,0
				c1.06-1.3,2.97-1.49,4.26-0.43l26.77,21.87C694.46,790.83,694.65,792.74,693.59,794.03L693.59,794.03z"/>
			<path class="st8" d="M678.65,799.17c-1.06,1.3-2.97,1.49-4.26,0.43l-20.74-17.02c-1.29-1.06-1.49-2.97-0.43-4.26l0,0
				c1.06-1.3,2.97-1.49,4.26-0.43l20.74,17.02C679.51,795.96,679.71,797.87,678.65,799.17L678.65,799.17z"/>
			<path class="st7" d="M759.33,881.97c-1.58-0.54-2.43-2.26-1.9-3.84l8.67-25.39c0.54-1.59,2.26-2.43,3.84-1.9l0,0
				c1.58,0.54,2.43,2.26,1.9,3.84l-8.67,25.39C762.63,881.66,760.91,882.51,759.33,881.97L759.33,881.97z"/>
			<path class="st7" d="M756.9,946.7c-1.58-0.54-2.43-2.26-1.9-3.84l8.67-25.39c0.54-1.58,2.26-2.43,3.84-1.9l0,0
				c1.58,0.54,2.43,2.26,1.9,3.84l-8.67,25.39C760.21,946.38,758.49,947.23,756.9,946.7L756.9,946.7z"/>
		</g>
	</g>
</g>
</svg>
