<?xml version="1.0" encoding="UTF-8"?>
<svg width="200px" height="200px" viewBox="0 0 200 200" version="1.1" xmlns="http://www.w3.org/2000/svg" xmlns:xlink="http://www.w3.org/1999/xlink">
    <!-- Generator: Sketch 55.2 (78181) - https://sketchapp.com -->
    <title>web</title>
    <desc>Created with Sketch.</desc>
    <g id="web" stroke="none" stroke-width="1" fill="none" fill-rule="evenodd">
        <g id="Group" transform="translate(26.000000, 10.000000)" fill="#ffffff">
            <path d="M3.92920354,32.3817391 L86.6572743,32.3817391 L88.0835752,60.4643478 L3.92920354,60.4643478 L3.92920354,32.3817391 Z M90.3559646,27.746087 L91.6892743,27.746087 L91.6892743,28.4686957 L90.3926372,28.4686957 L90.3559646,27.746087 Z M97.5555752,20.5043478 L122.474584,20.5043478 L122.441841,21.2647826 L97.5883186,21.2647826 L97.5555752,20.5043478 Z M102.725097,11.1743478 C102.725097,7.17 105.995504,3.91304348 110.01508,3.91304348 C114.034655,3.91304348 117.305062,7.17 117.305062,11.1743478 L117.305062,16.5913043 L102.725097,16.5913043 L102.725097,11.1743478 Z M143.317699,60.4643478 L124.701133,60.4643478 L125.90085,32.3817391 L143.317699,32.3817391 L143.317699,60.4643478 Z M143.317699,174.883043 L3.92920354,174.883043 L3.92920354,164.971304 L105.692956,164.971304 L105.692956,165.571304 C105.692956,166.651304 106.573097,167.527826 107.657558,167.527826 L112.791717,167.527826 C113.876177,167.527826 114.756319,166.651304 114.756319,165.571304 L114.756319,164.971304 L143.317699,164.971304 L143.317699,174.883043 Z M88.7056991,72.6965217 C88.7318938,73.2143478 88.9637168,73.7008696 89.3500885,74.0491304 C89.712885,74.373913 90.1817699,74.5526087 90.6676814,74.5526087 C90.7004248,74.5526087 90.7344779,74.5513043 90.7672212,74.55 L94.6689204,74.3530435 C95.1325664,74.3295652 95.5660885,74.1417391 95.9000708,73.8326087 L96.7147257,92.8904348 C96.7592566,93.9169565 97.5935575,94.7269565 98.6177699,94.7582609 L98.6177699,109.275652 L95.1548319,109.275652 C94.0703717,109.275652 93.1902301,110.15087 93.1902301,111.232174 L93.1902301,116.193913 C93.1902301,117.273913 94.0703717,118.150435 95.1548319,118.150435 L99.3106195,118.150435 C99.5293451,119.997391 99.3263363,124.665652 92.8627965,128.718261 C92.4201062,128.996087 92.1070796,129.438261 91.991823,129.945652 C91.8778761,130.454348 91.9708673,130.986522 92.2524602,131.426087 L108.359575,156.594783 C108.363504,156.6 108.368743,156.605217 108.372673,156.610435 C108.455186,156.734348 108.549487,156.847826 108.656885,156.95087 C108.684389,156.976957 108.717133,156.99913 108.745947,157.023913 C108.82977,157.095652 108.918832,157.159565 109.014442,157.216957 C109.055044,157.241739 109.096956,157.263913 109.140177,157.284783 C109.237097,157.333043 109.336637,157.372174 109.440106,157.403478 C109.482018,157.416522 109.52131,157.432174 109.563221,157.441304 C109.709912,157.476522 109.859221,157.498696 110.01508,157.498696 C110.172248,157.498696 110.321558,157.476522 110.468248,157.441304 C110.510159,157.432174 110.549451,157.416522 110.591363,157.403478 C110.694832,157.372174 110.794372,157.333043 110.891292,157.284783 C110.934513,157.263913 110.975115,157.241739 111.017027,157.216957 C111.112637,157.16087 111.201699,157.095652 111.285522,157.023913 C111.314336,156.99913 111.34708,156.976957 111.374584,156.95087 C111.481982,156.847826 111.577593,156.734348 111.658796,156.610435 C111.662726,156.605217 111.667965,156.6 111.671894,156.594783 L127.779009,131.426087 C128.060602,130.986522 128.153593,130.454348 128.039646,129.945652 C127.924389,129.438261 127.611363,128.996087 127.168673,128.718261 C120.726088,124.677391 120.504743,120.02087 120.722159,118.150435 L124.876637,118.150435 C125.961097,118.150435 126.841239,117.273913 126.841239,116.193913 L126.841239,111.232174 C126.841239,110.15087 125.961097,109.275652 124.876637,109.275652 L121.412389,109.275652 L121.412389,94.7582609 C122.436602,94.7269565 123.270903,93.9169565 123.315434,92.8904348 L124.533487,64.3773913 L143.317699,64.3773913 L143.317699,161.058261 L114.756319,161.058261 L114.756319,160.458261 C114.756319,159.378261 113.876177,158.501739 112.791717,158.501739 L107.657558,158.501739 C106.573097,158.501739 105.692956,159.378261 105.692956,160.458261 L105.692956,161.058261 L3.92920354,161.058261 L3.92920354,64.3773913 L88.2826549,64.3773913 L88.7056991,72.6965217 Z M95.4966726,64.3773913 L95.5582301,65.8252174 C95.3172389,65.4456522 94.9505133,65.1430435 94.4855575,64.9995652 C93.6433982,64.7426087 92.7619469,65.0752174 92.2865133,65.7613043 L92.2170973,64.3773913 L95.4966726,64.3773913 Z M94.1293097,32.3817391 L95.3290265,60.4643478 L92.0180177,60.4643478 L90.5917168,32.3817391 L94.1293097,32.3817391 Z M122.181204,27.3873913 L97.8489558,27.3873913 L97.7546549,25.1778261 L122.275504,25.1778261 L122.181204,27.3873913 Z M111.979681,109.275652 L117.483186,109.275652 L117.483186,94.7647826 L111.979681,94.7647826 L111.979681,109.275652 Z M102.546973,109.275652 L108.050478,109.275652 L108.050478,94.7647826 L102.546973,94.7647826 L102.546973,109.275652 Z M100.561416,90.8517391 L98.0166018,31.3004348 L122.013558,31.3004348 L119.468743,90.8517391 L100.561416,90.8517391 Z M95.7140885,69.476087 L95.435115,68.5786957 L95.647292,67.8926087 L95.7140885,69.476087 Z M97.1194336,114.237391 L122.912035,114.237391 L122.912035,113.188696 L97.1194336,113.188696 L97.1194336,114.237391 Z M110.01508,130.89913 C109.036708,130.89913 108.241699,130.106087 108.241699,129.133043 C108.241699,128.16 109.036708,127.368261 110.01508,127.368261 C110.993451,127.368261 111.78846,128.16 111.78846,129.133043 C111.78846,130.106087 110.993451,130.89913 110.01508,130.89913 Z M123.443788,130.917391 L111.979681,148.831304 L111.979681,134.443043 C114.15515,133.642174 115.717664,131.573478 115.717664,129.133043 C115.717664,126.002609 113.159752,123.455217 110.01508,123.455217 C106.870407,123.455217 104.312496,126.002609 104.312496,129.133043 C104.312496,131.574783 105.875009,133.642174 108.050478,134.443043 L108.050478,148.831304 L96.5876814,130.917391 C102.85869,126.267391 103.466407,120.978261 103.248991,118.150435 L116.782478,118.150435 C116.565062,120.978261 117.172779,126.267391 123.443788,130.917391 Z M1.96460177,178.796087 L145.282301,178.796087 C146.366761,178.796087 147.246903,177.919565 147.246903,176.839565 L147.246903,30.4252174 C147.246903,29.3452174 146.366761,28.4686957 145.282301,28.4686957 L128.340885,28.4686957 L128.340885,23.2213043 C128.340885,22.1413043 127.460743,21.2647826 126.376283,21.2647826 L126.48892,18.63 C126.509876,18.0978261 126.314726,17.58 125.944071,17.193913 C125.572106,16.8091304 125.06131,16.5913043 124.525628,16.5913043 L121.234265,16.5913043 L121.234265,11.1743478 C121.234265,5.0126087 116.200956,0 110.01508,0 C103.829204,0 98.7958938,5.0126087 98.7958938,11.1743478 L98.7958938,16.5913043 L95.504531,16.5913043 C94.9688496,16.5913043 94.4580531,16.8091304 94.0860885,17.193913 C93.7154336,17.58 93.5202832,18.0978261 93.5412389,18.63 L93.6538761,21.2647826 C92.5694159,21.2647826 91.6892743,22.1413043 91.6892743,23.2213043 L91.6892743,23.8330435 L88.2892035,23.8330435 C87.7495929,23.8330435 87.236177,24.0534783 86.8655221,24.4421739 C86.4948673,24.8295652 86.2997168,25.3526087 86.3272212,25.8886957 L86.4581947,28.4686957 L1.96460177,28.4686957 C0.880141593,28.4686957 4.26325641e-14,29.3452174 4.26325641e-14,30.4252174 L4.26325641e-14,176.839565 C4.26325641e-14,177.919565 0.880141593,178.796087 1.96460177,178.796087 L1.96460177,178.796087 Z" id="Fill-33"></path>
            <path d="M27.0041062,48.8869565 C25.0250973,48.8869565 23.4167434,47.2852174 23.4167434,45.3143478 C23.4167434,43.3434783 25.0250973,41.7391304 27.0041062,41.7391304 C28.983115,41.7391304 30.591469,43.3434783 30.591469,45.3143478 C30.591469,47.2852174 28.983115,48.8869565 27.0041062,48.8869565 Z M27.0041062,37.826087 C22.8587965,37.826087 19.4875398,41.186087 19.4875398,45.3143478 C19.4875398,49.4426087 22.8587965,52.8 27.0041062,52.8 C31.1494159,52.8 34.5206726,49.4426087 34.5206726,45.3143478 C34.5206726,41.186087 31.1494159,37.826087 27.0041062,37.826087 L27.0041062,37.826087 Z" id="Fill-27"></path>
            <path d="M46.1576637,48.8869565 C44.1786549,48.8869565 42.5703009,47.2852174 42.5703009,45.3143478 C42.5703009,43.3434783 44.1786549,41.7391304 46.1576637,41.7391304 C48.1366726,41.7391304 49.7463363,43.3434783 49.7463363,45.3143478 C49.7463363,47.2852174 48.1366726,48.8869565 46.1576637,48.8869565 Z M46.1576637,37.826087 C42.012354,37.826087 38.6410973,41.186087 38.6410973,45.3143478 C38.6410973,49.4426087 42.012354,52.8 46.1576637,52.8 C50.3029735,52.8 53.6755398,49.4426087 53.6755398,45.3143478 C53.6755398,41.186087 50.3029735,37.826087 46.1576637,37.826087 L46.1576637,37.826087 Z" id="Fill-28"></path>
            <path d="M65.312531,48.8869565 C63.3335221,48.8869565 61.7238584,47.2852174 61.7238584,45.3143478 C61.7238584,43.3434783 63.3335221,41.7391304 65.312531,41.7391304 C67.2915398,41.7391304 68.8998938,43.3434783 68.8998938,45.3143478 C68.8998938,47.2852174 67.2915398,48.8869565 65.312531,48.8869565 Z M65.312531,37.826087 C61.1672212,37.826087 57.7946549,41.186087 57.7946549,45.3143478 C57.7946549,49.4426087 61.1672212,52.8 65.312531,52.8 C69.4578407,52.8 72.8290973,49.4426087 72.8290973,45.3143478 C72.8290973,41.186087 69.4578407,37.826087 65.312531,37.826087 L65.312531,37.826087 Z" id="Fill-29"></path>
            <path d="M45.1819115,72.813913 C59.2615575,72.813913 70.7164956,84.2217391 70.7164956,98.2434783 C70.7164956,104.633478 68.3196814,110.463913 64.3983363,114.936522 C63.279823,111.568696 60.6577345,108.846522 57.2078938,107.632174 C58.9419823,107.230435 60.1102655,106.73087 60.196708,106.691739 L61.084708,103.901739 C59.3741947,101.042609 58.4783363,95.5147826 58.4979823,87.9156522 C58.5071504,84.3886957 57.1410973,81.0769565 54.6486726,78.5869565 C52.1772035,76.1191304 48.8871504,74.76 45.3862301,74.76 L44.9749735,74.76 C41.4753628,74.76 38.1853097,76.1191304 35.712531,78.5869565 C33.2214159,81.0769565 31.8553628,84.3886957 31.864531,87.9156522 C31.8828673,95.5173913 30.9883186,101.043913 29.2764956,103.901739 L30.1658053,106.691739 C30.2522478,106.73087 31.4048142,107.235652 33.1389027,107.638696 C29.6969204,108.854348 27.0813805,111.573913 25.964177,114.937826 C22.0428319,110.465217 19.6460177,104.633478 19.6460177,98.2434783 C19.6460177,84.2217391 31.1009558,72.813913 45.1819115,72.813913 Z M36.7917522,88.7256522 L35.771469,90.1878261 C35.7884956,89.4482609 35.796354,88.6865217 35.7937345,87.9052174 C35.7871858,85.4256522 36.7459115,83.0986957 38.4957168,81.3521739 C39.7936637,80.0543478 41.4164248,79.1934783 43.1806372,78.8478261 C43.0260885,81.6756522 42.0031858,86.7991304 36.7917522,88.7256522 Z M50.9211681,91.8469565 L50.9211681,97.7934783 C50.9211681,100.91087 48.3750442,103.445217 45.2473982,103.445217 L45.115115,103.445217 C41.9861593,103.445217 39.4413451,100.91087 39.4413451,97.7934783 L39.4413451,91.8469565 C42.1669027,90.5126087 43.9926726,88.466087 45.1806018,86.2330435 C46.368531,88.466087 48.1943009,90.5126087 50.9211681,91.8469565 Z M53.5694513,88.7256522 C48.3580177,86.7978261 47.3338053,81.6730435 47.1805664,78.8478261 C48.9460885,79.1934783 50.5675398,80.0543478 51.8654867,81.3521739 C53.615292,83.0986957 54.5753274,85.4256522 54.5687788,87.9052174 C54.5661593,88.6878261 54.5740177,89.4482609 54.5897345,90.1878261 L53.5694513,88.7256522 Z M53.2524956,104.212174 C53.1660531,103.882174 53.0966372,103.587391 53.0468673,103.353913 C54.1771681,101.784783 54.8503717,99.8673913 54.8503717,97.7934783 L54.8503717,94.9578261 C55.1764956,98.5317391 55.7815929,101.466522 56.6669735,103.741304 C55.7370619,103.977391 54.5412743,104.19 53.2524956,104.212174 Z M40.5939115,106.219565 C41.9429381,106.94087 43.4792566,107.358261 45.115115,107.358261 L45.2473982,107.358261 C46.8832566,107.358261 48.4195752,106.94087 49.7686018,106.219565 C49.8786195,106.526087 50.004354,106.822174 50.1510442,107.10913 C50.0803186,108.172174 49.7908673,110.012609 48.6356814,111.237391 C47.828885,112.091739 46.6985841,112.507826 45.1819115,112.507826 C43.6704779,112.507826 42.5441062,112.095652 41.7373097,111.24913 C40.5729558,110.025652 40.2821947,108.176087 40.211469,107.111739 C40.3568496,106.823478 40.4838938,106.527391 40.5939115,106.219565 Z M37.3143363,103.353913 C37.2645664,103.586087 37.1964602,103.882174 37.1113274,104.21087 C35.8212389,104.187391 34.6241416,103.976087 33.6942301,103.741304 C34.5796106,101.467826 35.1860177,98.5330435 35.5121416,94.9578261 L35.5121416,97.7934783 C35.5121416,99.8673913 36.1840354,101.784783 37.3143363,103.353913 Z M29.3354336,118.14913 C29.5345133,114.78 31.8750088,111.913043 35.2017345,111.095217 C35.7924248,110.950435 36.3516814,110.727391 36.8821239,110.454783 C37.2658761,111.636522 37.8762124,112.871739 38.8624425,113.915217 C40.4315044,115.578261 42.5572035,116.42087 45.1819115,116.42087 C47.8053097,116.42087 49.9310088,115.578261 51.5000708,113.915217 C52.4863009,112.871739 53.0966372,111.636522 53.4803894,110.454783 C54.0095221,110.727391 54.5700885,110.950435 55.1607788,111.095217 C58.4861947,111.913043 60.828,114.78 61.0270796,118.14913 C56.6682832,121.597826 51.168708,123.674348 45.1819115,123.674348 C39.195115,123.674348 33.6942301,121.597826 29.3354336,118.14913 Z M45.1819115,127.587391 C61.4278584,127.587391 74.6456991,114.423913 74.6456991,98.2434783 C74.6456991,82.0643478 61.4278584,68.9008696 45.1819115,68.9008696 C28.9333451,68.9008696 15.7168142,82.0643478 15.7168142,98.2434783 C15.7168142,114.423913 28.9333451,127.587391 45.1819115,127.587391 L45.1819115,127.587391 Z" id="Fill-30"></path>
            <path d="M70.3667965,135.392609 L19.9944071,135.392609 C18.9099469,135.392609 18.0298053,136.26913 18.0298053,137.34913 C18.0298053,138.42913 18.9099469,139.305652 19.9944071,139.305652 L70.3667965,139.305652 C71.4512566,139.305652 72.3313982,138.42913 72.3313982,137.34913 C72.3313982,136.26913 71.4512566,135.392609 70.3667965,135.392609" id="Fill-31"></path>
        </g>
    </g>
</svg>